{
  "accessors": [
    {
      "bufferView": 2,
      "componentType": 5126,
      "count": 274,
      "max": [
        15.000000953674316,
        15.000000953674316,
        15.000000953674316
      ],
      "min": [
        -14.999999046325684,
        -15.000000953674316,
        -14.999999046325684
      ],
      "type": "VEC3"
    },
    {
      "bufferView": 2,
      "byteOffset": 3288,
      "componentType": 5126,
      "count": 274,
      "max": [
        1.0,
        1.0,
        1.0
      ],
      "min": [
        -1.0,
        -1.0,
        -1.0
      ],
      "type": "VEC3"
    },
    {
      "bufferView": 3,
      "componentType": 5126,
      "count": 274,
      "max": [
        0.999748945236206,
        0.981238067150116,
        0.6130441427230835,
        1.0
      ],
      "min": [
        -0.9998174905776978,
        -0.9768857955932617,
        -0.39533859491348267,
        1.0
      ],
      "type": "VEC4"
    },
    {
      "bufferView": 1,
      "componentType": 5126,
      "count": 274,
      "max": [
        0.9989966750144958,
        0.5081097483634949
      ],
      "min": [
        0.0010032802820205688,
        0.0010032802820205688
      ],
      "type": "VEC2"
    },
    {
      "bufferView": 0,
      "componentType": 5125,
      "count": 1440,
      "type": "SCALAR"
    }
  ],
  "asset": {
    "extras": {
      "author": "Pitchforkone (https://sketchfab.com/pitchforkone)",
      "license": "CC-BY-4.0 (http://creativecommons.org/licenses/by/4.0/)",
      "source": "https://sketchfab.com/3d-models/basketball-ball-07a1d0e8562648c58bdb0ca82029da01",
      "title": "Basketball Ball"
    },
    "generator": "Sketchfab-14.85.0",
    "version": "2.0"
  },
  "bufferViews": [
    {
      "buffer": 0,
      "byteLength": 5760,
      "name": "floatBufferViews",
      "target": 34963
    },
    {
      "buffer": 0,
      "byteLength": 2192,
      "byteOffset": 5760,
      "byteStride": 8,
      "name": "floatBufferViews",
      "target": 34962
    },
    {
      "buffer": 0,
      "byteLength": 6576,
      "byteOffset": 7952,
      "byteStride": 12,
      "name": "floatBufferViews",
      "target": 34962
    },
    {
      "buffer": 0,
      "byteLength": 4384,
      "byteOffset": 14528,
      "byteStride": 16,
      "name": "floatBufferViews",
      "target": 34962
    }
  ],
  "buffers": [
    {
      "byteLength": 18912,
      "uri": "scene.bin"
    }
  ],
  "images": [
    {
      "uri": "textures/Ball_baseColor.png"
    },
    {
      "uri": "textures/Ball_metallicRoughness.png"
    },
    {
      "uri": "textures/Ball_normal.png"
    }
  ],
  "materials": [
    {
      "doubleSided": true,
      "name": "Ball",
      "normalTexture": {
        "index": 2
      },
      "pbrMetallicRoughness": {
        "baseColorTexture": {
          "index": 0
        },
        "metallicRoughnessTexture": {
          "index": 1
        }
      }
    }
  ],
  "meshes": [
    {
      "name": "Ball_low_Ball_0",
      "primitives": [
        {
          "attributes": {
            "NORMAL": 1,
            "POSITION": 0,
            "TANGENT": 2,
            "TEXCOORD_0": 3
          },
          "indices": 4,
          "material": 0,
          "mode": 4
        }
      ]
    }
  ],
  "nodes": [
    {
      "children": [
        1
      ],
      "matrix": [
        1.0,
        0.0,
        0.0,
        0.0,
        0.0,
        -1.0,
        0.0,
        0.0,
        0.0,
        0.0,
        -1.0,
        0.0,
        0.0,
        0.0,
        0.0,
        1.0
      ],
      "name": "Sketchfab_model"
    },
    {
      "children": [
        2
      ],
      "matrix": [
        0.009999999776482582,
        0.0,
        0.0,
        0.0,
        0.0,
        0.0,
        0.009999999776482582,
        0.0,
        0.0,
        -0.009999999776482582,
        0.0,
        0.0,
        0.0,
        0.0,
        0.0,
        1.0
      ],
      "name": "BallLP.fbx"
    },
    {
      "children": [
        3
      ],
      "name": "RootNode"
    },
    {
      "children": [
        4
      ],
      "name": "Ball_low"
    },
    {
      "mesh": 0,
      "name": "Ball_low_Ball_0"
    }
  ],
  "samplers": [
    {
      "magFilter": 9729,
      "minFilter": 9987,
      "wrapS": 10497,
      "wrapT": 10497
    }
  ],
  "scene": 0,
  "scenes": [
    {
      "name": "Sketchfab_Scene",
      "nodes": [
        0
      ]
    }
  ],
  "textures": [
    {
      "sampler": 0,
      "source": 0
    },
    {
      "sampler": 0,
      "source": 1
    },
    {
      "sampler": 0,
      "source": 2
    }
  ]
}
