{
  "accessors": [
    {
      "bufferView": 2,
      "componentType": 5126,
      "count": 6512,
      "max": [
        0.9368119835853577,
        0.9380539655685425,
        0.9330076575279236
      ],
      "min": [
        -0.9368119835853577,
        -0.9380538463592529,
        -0.9330077171325684
      ],
      "type": "VEC3"
    },
    {
      "bufferView": 2,
      "byteOffset": 78144,
      "componentType": 5126,
      "count": 6512,
      "max": [
        0.9999939203262329,
        1.0,
        0.9999866485595703
      ],
      "min": [
        -0.9999939203262329,
        -1.0,
        -0.9999866485595703
      ],
      "type": "VEC3"
    },
    {
      "bufferView": 1,
      "componentType": 5126,
      "count": 6512,
      "max": [
        0.9827404618263245,
        0.9950222373008728
      ],
      "min": [
        0.004977708216756582,
        0.004977762699127197
      ],
      "type": "VEC2"
    },
    {
      "bufferView": 1,
      "byteOffset": 52096,
      "componentType": 5126,
      "count": 6512,
      "max": [
        0.9827404618263245,
        0.9950222373008728
      ],
      "min": [
        0.004977708216756582,
        0.004977762699127197
      ],
      "type": "VEC2"
    },
    {
      "bufferView": 1,
      "byteOffset": 104192,
      "componentType": 5126,
      "count": 6512,
      "max": [
        0.9827404618263245,
        0.9950222373008728
      ],
      "min": [
        0.004977708216756582,
        0.004977762699127197
      ],
      "type": "VEC2"
    },
    {
      "bufferView": 0,
      "componentType": 5125,
      "count": 34560,
      "type": "SCALAR"
    }
  ],
  "asset": {
    "extras": {
      "author": "Safat_Rules (https://sketchfab.com/Safat_Rules)",
      "license": "CC-BY-4.0 (http://creativecommons.org/licenses/by/4.0/)",
      "source": "https://sketchfab.com/3d-models/football-89ce97755fe9499aa59cb0876c21ee86",
      "title": "Football"
    },
    "generator": "Sketchfab-15.37.0",
    "version": "2.0"
  },
  "bufferViews": [
    {
      "buffer": 0,
      "byteLength": 138240,
      "name": "floatBufferViews",
      "target": 34963
    },
    {
      "buffer": 0,
      "byteLength": 156288,
      "byteOffset": 138240,
      "byteStride": 8,
      "name": "floatBufferViews",
      "target": 34962
    },
    {
      "buffer": 0,
      "byteLength": 156288,
      "byteOffset": 294528,
      "byteStride": 12,
      "name": "floatBufferViews",
      "target": 34962
    }
  ],
  "buffers": [
    {
      "byteLength": 450816,
      "uri": "scene.bin"
    }
  ],
  "images": [
    {
      "uri": "textures/Material_baseColor.png"
    },
    {
      "uri": "textures/Material_metallicRoughness.png"
    }
  ],
  "materials": [
    {
      "doubleSided": true,
      "name": "Material",
      "pbrMetallicRoughness": {
        "baseColorTexture": {
          "index": 0
        },
        "metallicFactor": 0.0,
        "metallicRoughnessTexture": {
          "index": 1
        }
      }
    }
  ],
  "meshes": [
    {
      "name": "Object_0",
      "primitives": [
        {
          "attributes": {
            "NORMAL": 1,
            "POSITION": 0,
            "TEXCOORD_0": 2,
            "TEXCOORD_1": 3,
            "TEXCOORD_2": 4
          },
          "indices": 5,
          "material": 0,
          "mode": 4
        }
      ]
    }
  ],
  "nodes": [
    {
      "children": [
        1
      ],
      "matrix": [
        1.0,
        0.0,
        0.0,
        0.0,
        0.0,
        2.220446049250313e-16,
        -1.0,
        0.0,
        0.0,
        1.0,
        2.220446049250313e-16,
        0.0,
        0.0,
        0.0,
        0.0,
        1.0
      ],
      "name": "Sketchfab_model"
    },
    {
      "children": [
        2
      ],
      "name": "root"
    },
    {
      "children": [
        3
      ],
      "matrix": [
        1.0,
        0.0,
        0.0,
        0.0,
        0.0,
        2.220446049250313e-16,
        1.0,
        0.0,
        0.0,
        -1.0,
        2.220446049250313e-16,
        0.0,
        0.0,
        0.0,
        0.0,
        1.0
      ],
      "name": "GLTF_SceneRootNode"
    },
    {
      "children": [
        4
      ],
      "name": "Icosphere.001_0"
    },
    {
      "mesh": 0,
      "name": "Object_4"
    }
  ],
  "samplers": [
    {
      "magFilter": 9729,
      "minFilter": 9987,
      "wrapS": 10497,
      "wrapT": 10497
    }
  ],
  "scene": 0,
  "scenes": [
    {
      "name": "Sketchfab_Scene",
      "nodes": [
        0
      ]
    }
  ],
  "textures": [
    {
      "sampler": 0,
      "source": 0
    },
    {
      "sampler": 0,
      "source": 1
    }
  ]
}
