{
  "accessors": [
    {
      "bufferView": 2,
      "componentType": 5126,
      "count": 1967,
      "max": [
        0.28162238001823425,
        0.22083218395709991,
        0.570726752281189
      ],
      "min": [
        -0.28162238001823425,
        -0.19335609674453735,
        -0.5707273483276367
      ],
      "type": "VEC3"
    },
    {
      "bufferView": 2,
      "byteOffset": 23604,
      "componentType": 5126,
      "count": 1967,
      "max": [
        1.0,
        1.0,
        1.0
      ],
      "min": [
        -1.0,
        -1.0,
        -1.0
      ],
      "type": "VEC3"
    },
    {
      "bufferView": 3,
      "componentType": 5126,
      "count": 1967,
      "max": [
        1.0,
        1.0,
        1.0,
        1.0
      ],
      "min": [
        -0.9157475233078003,
        -0.9999868273735046,
        -1.0,
        -1.0
      ],
      "type": "VEC4"
    },
    {
      "bufferView": 1,
      "componentType": 5126,
      "count": 1967,
      "max": [
        0.9928528666496277,
        0.9992457032203674
      ],
      "min": [
        0.00022256137162912637,
        0.00022256416559685022
      ],
      "type": "VEC2"
    },
    {
      "bufferView": 1,
      "byteOffset": 15736,
      "componentType": 5126,
      "count": 1967,
      "max": [
        0.9928528666496277,
        0.9992457032203674
      ],
      "min": [
        0.00022256137162912637,
        0.00022256416559685022
      ],
      "type": "VEC2"
    },
    {
      "bufferView": 1,
      "byteOffset": 31472,
      "componentType": 5126,
      "count": 1967,
      "max": [
        0.9928528666496277,
        0.9992457032203674
      ],
      "min": [
        0.00022256137162912637,
        0.00022256416559685022
      ],
      "type": "VEC2"
    },
    {
      "bufferView": 0,
      "componentType": 5125,
      "count": 3240,
      "type": "SCALAR"
    }
  ],
  "asset": {
    "extras": {
      "author": "dylanheyes (https://sketchfab.com/dylanheyes)",
      "license": "CC-BY-4.0 (http://creativecommons.org/licenses/by/4.0/)",
      "source": "https://sketchfab.com/3d-models/low-poly-table-bf73167a6cfd4f1683f74dc3837ce4b6",
      "title": "Low Poly Table"
    },
    "generator": "Sketchfab-13.15.0",
    "version": "2.0"
  },
  "bufferViews": [
    {
      "buffer": 0,
      "byteLength": 12960,
      "name": "floatBufferViews",
      "target": 34963
    },
    {
      "buffer": 0,
      "byteLength": 47208,
      "byteOffset": 12960,
      "byteStride": 8,
      "name": "floatBufferViews",
      "target": 34962
    },
    {
      "buffer": 0,
      "byteLength": 47208,
      "byteOffset": 60168,
      "byteStride": 12,
      "name": "floatBufferViews",
      "target": 34962
    },
    {
      "buffer": 0,
      "byteLength": 31472,
      "byteOffset": 107376,
      "byteStride": 16,
      "name": "floatBufferViews",
      "target": 34962
    }
  ],
  "buffers": [
    {
      "byteLength": 138848,
      "uri": "scene.bin"
    }
  ],
  "images": [
    {
      "uri": "textures/Material_baseColor.png"
    },
    {
      "uri": "textures/Material_normal.png"
    }
  ],
  "materials": [
    {
      "doubleSided": true,
      "name": "Material",
      "normalTexture": {
        "index": 1,
        "texCoord": 1
      },
      "pbrMetallicRoughness": {
        "baseColorTexture": {
          "index": 0
        },
        "metallicFactor": 0.0,
        "roughnessFactor": 0.8211145618000169
      }
    }
  ],
  "meshes": [
    {
      "name": "1058.009_jqb503c0.3_Material_0",
      "primitives": [
        {
          "attributes": {
            "NORMAL": 1,
            "POSITION": 0,
            "TANGENT": 2,
            "TEXCOORD_0": 3,
            "TEXCOORD_1": 4,
            "TEXCOORD_2": 5
          },
          "indices": 6,
          "material": 0,
          "mode": 4
        }
      ]
    }
  ],
  "nodes": [
    {
      "children": [
        1
      ],
      "matrix": [
        -0.9999996423721313,
        0.000813861028291285,
        1.8071345049081811e-19,
        0.0,
        0.0,
        2.220446049250313e-16,
        -1.0,
        0.0,
        -0.000813861028291285,
        -0.9999996423721313,
        -2.220445255156925e-16,
        0.0,
        0.0,
        0.0,
        0.0,
        1.0
      ],
      "name": "Sketchfab_model"
    },
    {
      "children": [
        2
      ],
      "matrix": [
        0.009999999776482582,
        0.0,
        0.0,
        0.0,
        0.0,
        -0.009999999776482582,
        0.0,
        0.0,
        0.0,
        0.0,
        -0.009999999776482582,
        0.0,
        0.0,
        0.0,
        0.0,
        1.0
      ],
      "name": "Table.fbx"
    },
    {
      "children": [
        3
      ],
      "name": "RootNode"
    },
    {
      "children": [
        4
      ],
      "matrix": [
        -5.9417487076466214e-05,
        -364.7019348144476,
        -2.173792668215004e-05,
        0.0,
        -1.5941631991339072e-05,
        -2.1737924090786936e-05,
        364.70193481445216,
        0.0,
        -364.70193481444795,
        5.941748804822738e-05,
        -1.5941628448459825e-05,
        0.0,
        0.0,
        0.0,
        67.74803161621094,
        1.0
      ],
      "name": "1058.009_jqb503c0.3"
    },
    {
      "mesh": 0,
      "name": "1058.009_jqb503c0.3_Material_0"
    }
  ],
  "samplers": [
    {
      "magFilter": 9729,
      "minFilter": 9987,
      "wrapS": 10497,
      "wrapT": 10497
    }
  ],
  "scene": 0,
  "scenes": [
    {
      "name": "Sketchfab_Scene",
      "nodes": [
        0
      ]
    }
  ],
  "textures": [
    {
      "sampler": 0,
      "source": 0
    },
    {
      "sampler": 0,
      "source": 1
    }
  ]
}
