{
  "accessors": [
    {
      "bufferView": 2,
      "componentType": 5126,
      "count": 15226,
      "max": [
        0.12135054171085358,
        0.08331547677516937,
        0.28820306062698364
      ],
      "min": [
        -0.12135053426027298,
        -0.08331547677516937,
        -0.28820306062698364
      ],
      "type": "VEC3"
    },
    {
      "bufferView": 2,
      "byteOffset": 182712,
      "componentType": 5126,
      "count": 15226,
      "max": [
        0.9975197911262512,
        0.999985933303833,
        0.9999224543571472
      ],
      "min": [
        -0.9997512102127075,
        -0.9999904632568359,
        -0.9998152852058411
      ],
      "type": "VEC3"
    },
    {
      "bufferView": 1,
      "componentType": 5126,
      "count": 15226,
      "max": [
        0.9917239546775818,
        0.9999975562095642
      ],
      "min": [
        0.00023997992684599012,
        8.213435648940504e-05
      ],
      "type": "VEC2"
    },
    {
      "bufferView": 1,
      "byteOffset": 121808,
      "componentType": 5126,
      "count": 15226,
      "max": [
        0.9917239546775818,
        0.9999975562095642
      ],
      "min": [
        0.00023997992684599012,
        8.213435648940504e-05
      ],
      "type": "VEC2"
    },
    {
      "bufferView": 1,
      "byteOffset": 243616,
      "componentType": 5126,
      "count": 15226,
      "max": [
        0.9917239546775818,
        0.9999975562095642
      ],
      "min": [
        0.00023997992684599012,
        8.213435648940504e-05
      ],
      "type": "VEC2"
    },
    {
      "bufferView": 1,
      "byteOffset": 365424,
      "componentType": 5126,
      "count": 15226,
      "max": [
        0.9917239546775818,
        0.9999975562095642
      ],
      "min": [
        0.00023997992684599012,
        8.213435648940504e-05
      ],
      "type": "VEC2"
    },
    {
      "bufferView": 1,
      "byteOffset": 487232,
      "componentType": 5126,
      "count": 15226,
      "max": [
        0.9917239546775818,
        0.9999975562095642
      ],
      "min": [
        0.00023997992684599012,
        8.213435648940504e-05
      ],
      "type": "VEC2"
    },
    {
      "bufferView": 0,
      "componentType": 5125,
      "count": 82560,
      "type": "SCALAR"
    }
  ],
  "asset": {
    "extras": {
      "author": "Koornzz (https://sketchfab.com/Koornzz)",
      "license": "CC-BY-NC-SA-4.0 (http://creativecommons.org/licenses/by-nc-sa/4.0/)",
      "source": "https://sketchfab.com/3d-models/68-mercury-cougar-muscle-body-kit-f9c6fb26713c495b824919a13b6e24b0",
      "title": "68’ Mercury Cougar Muscle body kit"
    },
    "generator": "Sketchfab-14.64.0",
    "version": "2.0"
  },
  "bufferViews": [
    {
      "buffer": 0,
      "byteLength": 330240,
      "name": "floatBufferViews",
      "target": 34963
    },
    {
      "buffer": 0,
      "byteLength": 609040,
      "byteOffset": 330240,
      "byteStride": 8,
      "name": "floatBufferViews",
      "target": 34962
    },
    {
      "buffer": 0,
      "byteLength": 365424,
      "byteOffset": 939280,
      "byteStride": 12,
      "name": "floatBufferViews",
      "target": 34962
    }
  ],
  "buffers": [
    {
      "byteLength": 1304704,
      "uri": "scene.bin"
    }
  ],
  "extensionsUsed": [
    "KHR_materials_unlit"
  ],
  "images": [
    {
      "uri": "textures/material_0_baseColor.jpeg"
    }
  ],
  "materials": [
    {
      "extensions": {
        "KHR_materials_unlit": {}
      },
      "name": "material_0",
      "pbrMetallicRoughness": {
        "baseColorTexture": {
          "index": 0
        },
        "metallicFactor": 0.0
      }
    }
  ],
  "meshes": [
    {
      "name": "Object_0",
      "primitives": [
        {
          "attributes": {
            "NORMAL": 1,
            "POSITION": 0,
            "TEXCOORD_0": 2,
            "TEXCOORD_1": 3,
            "TEXCOORD_2": 4,
            "TEXCOORD_3": 5,
            "TEXCOORD_4": 6
          },
          "indices": 7,
          "material": 0,
          "mode": 4
        }
      ]
    }
  ],
  "nodes": [
    {
      "children": [
        1
      ],
      "matrix": [
        1.0,
        0.0,
        0.0,
        0.0,
        0.0,
        2.220446049250313e-16,
        -1.0,
        0.0,
        0.0,
        1.0,
        2.220446049250313e-16,
        0.0,
        0.0,
        0.0,
        0.0,
        1.0
      ],
      "name": "Sketchfab_model"
    },
    {
      "children": [
        2
      ],
      "name": "root"
    },
    {
      "children": [
        3
      ],
      "matrix": [
        1.0,
        0.0,
        0.0,
        0.0,
        0.0,
        2.220446049250313e-16,
        1.0,
        0.0,
        0.0,
        -1.0,
        2.220446049250313e-16,
        0.0,
        0.0,
        0.0,
        0.0,
        1.0
      ],
      "name": "GLTF_SceneRootNode"
    },
    {
      "children": [
        4
      ],
      "name": "_0"
    },
    {
      "mesh": 0,
      "name": "Object_4"
    }
  ],
  "samplers": [
    {
      "magFilter": 9729,
      "minFilter": 9987,
      "wrapS": 10497,
      "wrapT": 10497
    }
  ],
  "scene": 0,
  "scenes": [
    {
      "name": "Sketchfab_Scene",
      "nodes": [
        0
      ]
    }
  ],
  "textures": [
    {
      "sampler": 0,
      "source": 0
    }
  ]
}
