{
  "accessors": [
    {
      "bufferView": 2,
      "componentType": 5126,
      "count": 2954,
      "max": [
        0.6259390115737915,
        2.383430004119873,
        0.6700680255889893
      ],
      "min": [
        -0.6259390115737915,
        -0.8674460053443909,
        -0.4267350137233734
      ],
      "type": "VEC3"
    },
    {
      "bufferView": 2,
      "byteOffset": 35448,
      "componentType": 5126,
      "count": 2954,
      "max": [
        0.9999949932098389,
        1.0,
        0.9999979734420776
      ],
      "min": [
        -0.9999949932098389,
        -1.0,
        -1.0
      ],
      "type": "VEC3"
    },
    {
      "bufferView": 1,
      "componentType": 5126,
      "count": 2954,
      "max": [
        0.7687150239944458,
        0.7312759757041931
      ],
      "min": [
        0.005000010132789612,
        0.15943700075149536
      ],
      "type": "VEC2"
    },
    {
      "bufferView": 0,
      "componentType": 5125,
      "count": 16128,
      "type": "SCALAR"
    },
    {
      "bufferView": 2,
      "byteOffset": 70896,
      "componentType": 5126,
      "count": 17178,
      "max": [
        1.47298002243042,
        2.978909969329834,
        2.119220018386841
      ],
      "min": [
        -1.47298002243042,
        -1.5934799909591675,
        0.09588710218667984
      ],
      "type": "VEC3"
    },
    {
      "bufferView": 2,
      "byteOffset": 277032,
      "componentType": 5126,
      "count": 17178,
      "max": [
        1.0,
        1.0,
        1.0
      ],
      "min": [
        -1.0,
        -0.9998777508735657,
        -0.9999961256980896
      ],
      "type": "VEC3"
    },
    {
      "bufferView": 1,
      "byteOffset": 23632,
      "componentType": 5126,
      "count": 17178,
      "max": [
        0.9839079976081848,
        0.9947609901428223
      ],
      "min": [
        0.005000010132789612,
        0.006197180133312941
      ],
      "type": "VEC2"
    },
    {
      "bufferView": 0,
      "byteOffset": 64512,
      "componentType": 5125,
      "count": 94224,
      "type": "SCALAR"
    },
    {
      "bufferView": 2,
      "byteOffset": 483168,
      "componentType": 5126,
      "count": 2498,
      "max": [
        0.9998509883880615,
        2.934799909591675,
        2.7989299297332764
      ],
      "min": [
        -1.0321400165557861,
        0.8810989856719971,
        1.320770025253296
      ],
      "type": "VEC3"
    },
    {
      "bufferView": 2,
      "byteOffset": 513144,
      "componentType": 5126,
      "count": 2498,
      "max": [
        0.9999332427978516,
        0.9991655349731445,
        0.9997826218605042
      ],
      "min": [
        -0.9991814494132996,
        -0.999970018863678,
        -0.9999256134033203
      ],
      "type": "VEC3"
    },
    {
      "bufferView": 1,
      "byteOffset": 161056,
      "componentType": 5126,
      "count": 2498,
      "max": [
        0.8250259757041931,
        0.9312970042228699
      ],
      "min": [
        0.005000010132789612,
        0.006197180133312941
      ],
      "type": "VEC2"
    },
    {
      "bufferView": 0,
      "byteOffset": 441408,
      "componentType": 5125,
      "count": 12960,
      "type": "SCALAR"
    },
    {
      "bufferView": 2,
      "byteOffset": 543120,
      "componentType": 5126,
      "count": 19800,
      "max": [
        1.4621800184249878,
        2.7825300693511963,
        0.7575250267982483
      ],
      "min": [
        -1.4621800184249878,
        -1.2688000202178955,
        -0.8897939920425415
      ],
      "type": "VEC3"
    },
    {
      "bufferView": 2,
      "byteOffset": 780720,
      "componentType": 5126,
      "count": 19800,
      "max": [
        0.9999961256980896,
        1.0,
        1.0
      ],
      "min": [
        -0.9999961256980896,
        -1.0,
        -1.0
      ],
      "type": "VEC3"
    },
    {
      "bufferView": 1,
      "byteOffset": 181040,
      "componentType": 5126,
      "count": 19800,
      "max": [
        0.9849280118942261,
        0.9949619770050049
      ],
      "min": [
        0.005000010132789612,
        0.004999999888241291
      ],
      "type": "VEC2"
    },
    {
      "bufferView": 0,
      "byteOffset": 493248,
      "componentType": 5125,
      "count": 102912,
      "type": "SCALAR"
    },
    {
      "bufferView": 2,
      "byteOffset": 1018320,
      "componentType": 5126,
      "count": 354,
      "max": [
        0.3262520134449005,
        -1.4795199632644653,
        0.7481039762496948
      ],
      "min": [
        -0.3262520134449005,
        -1.5223900079727173,
        0.4401330053806305
      ],
      "type": "VEC3"
    },
    {
      "bufferView": 2,
      "byteOffset": 1022568,
      "componentType": 5126,
      "count": 354,
      "max": [
        0.6444992423057556,
        -0.6997830867767334,
        0.5729938745498657
      ],
      "min": [
        -0.6444889307022095,
        -0.9998669028282166,
        -0.7129191756248474
      ],
      "type": "VEC3"
    },
    {
      "bufferView": 1,
      "byteOffset": 339440,
      "componentType": 5126,
      "count": 354,
      "max": [
        0.9386559724807739,
        0.39583200216293335
      ],
      "min": [
        0.33059900999069214,
        0.23007099330425262
      ],
      "type": "VEC2"
    },
    {
      "bufferView": 0,
      "byteOffset": 904896,
      "componentType": 5125,
      "count": 1920,
      "type": "SCALAR"
    },
    {
      "bufferView": 2,
      "byteOffset": 1026816,
      "componentType": 5126,
      "count": 4676,
      "max": [
        1.4305599927902222,
        2.2776200771331787,
        0.26590999960899353
      ],
      "min": [
        -1.4305599927902222,
        -0.8190230131149292,
        -0.42819899320602417
      ],
      "type": "VEC3"
    },
    {
      "bufferView": 2,
      "byteOffset": 1082928,
      "componentType": 5126,
      "count": 4676,
      "max": [
        1.0,
        1.0,
        1.0
      ],
      "min": [
        -1.0,
        -1.0,
        -1.0
      ],
      "type": "VEC3"
    },
    {
      "bufferView": 1,
      "byteOffset": 342272,
      "componentType": 5126,
      "count": 4676,
      "max": [
        0.20227700471878052,
        0.9940109848976135
      ],
      "min": [
        0.005000010132789612,
        0.004999999888241291
      ],
      "type": "VEC2"
    },
    {
      "bufferView": 0,
      "byteOffset": 912576,
      "componentType": 5125,
      "count": 24768,
      "type": "SCALAR"
    },
    {
      "bufferView": 2,
      "byteOffset": 1139040,
      "componentType": 5126,
      "count": 800,
      "max": [
        1.405940055847168,
        2.3757400512695313,
        0.350737988948822
      ],
      "min": [
        -1.405940055847168,
        -0.8965290188789368,
        -0.5175279974937439
      ],
      "type": "VEC3"
    },
    {
      "bufferView": 2,
      "byteOffset": 1148640,
      "componentType": 5126,
      "count": 800,
      "max": [
        0.9995965957641602,
        0.9839149713516235,
        0.9839153289794922
      ],
      "min": [
        -0.9995966553688049,
        -0.9839150905609131,
        -0.9839150905609131
      ],
      "type": "VEC3"
    },
    {
      "bufferView": 1,
      "byteOffset": 379680,
      "componentType": 5126,
      "count": 800,
      "max": [
        0.9857950210571289,
        0.9950000047683716
      ],
      "min": [
        0.13070400059223175,
        0.004999999888241291
      ],
      "type": "VEC2"
    },
    {
      "bufferView": 0,
      "byteOffset": 1011648,
      "componentType": 5125,
      "count": 3840,
      "type": "SCALAR"
    },
    {
      "bufferView": 2,
      "byteOffset": 1158240,
      "componentType": 5126,
      "count": 4704,
      "max": [
        1.4524699449539185,
        2.385390043258667,
        0.3603920042514801
      ],
      "min": [
        -1.4524699449539185,
        -0.9045990109443665,
        -0.5255990028381348
      ],
      "type": "VEC3"
    },
    {
      "bufferView": 2,
      "byteOffset": 1214688,
      "componentType": 5126,
      "count": 4704,
      "max": [
        0.9990959763526917,
        0.9839149713516235,
        0.9839153289794922
      ],
      "min": [
        -0.9990952610969543,
        -0.9839150905609131,
        -0.9839150905609131
      ],
      "type": "VEC3"
    },
    {
      "bufferView": 1,
      "byteOffset": 386080,
      "componentType": 5126,
      "count": 4704,
      "max": [
        0.9642469882965088,
        0.9504110217094421
      ],
      "min": [
        0.803521990776062,
        0.18936599791049957
      ],
      "type": "VEC2"
    },
    {
      "bufferView": 0,
      "byteOffset": 1027008,
      "componentType": 5125,
      "count": 25344,
      "type": "SCALAR"
    },
    {
      "bufferView": 2,
      "byteOffset": 1271136,
      "componentType": 5126,
      "count": 810,
      "max": [
        0.8581159710884094,
        2.8211300373077393,
        0.9836810231208801
      ],
      "min": [
        -0.8581159710884094,
        2.531519889831543,
        0.7314429879188538
      ],
      "type": "VEC3"
    },
    {
      "bufferView": 2,
      "byteOffset": 1280856,
      "componentType": 5126,
      "count": 810,
      "max": [
        0.994507372379303,
        0.9979226589202881,
        0.9993564486503601
      ],
      "min": [
        -0.9945071339607239,
        -0.1963590830564499,
        -0.8749491572380066
      ],
      "type": "VEC3"
    },
    {
      "bufferView": 1,
      "byteOffset": 423712,
      "componentType": 5126,
      "count": 810,
      "max": [
        0.9259870052337646,
        0.6239259839057922
      ],
      "min": [
        0.875353991985321,
        0.5281699895858765
      ],
      "type": "VEC2"
    },
    {
      "bufferView": 0,
      "byteOffset": 1128384,
      "componentType": 5125,
      "count": 4608,
      "type": "SCALAR"
    },
    {
      "bufferView": 2,
      "byteOffset": 1290576,
      "componentType": 5126,
      "count": 26838,
      "max": [
        1.2893400192260742,
        3.0905399322509766,
        2.5571799278259277
      ],
      "min": [
        -1.2893400192260742,
        -1.6838500499725342,
        -0.332518994808197
      ],
      "type": "VEC3"
    },
    {
      "bufferView": 2,
      "byteOffset": 1612632,
      "componentType": 5126,
      "count": 26838,
      "max": [
        1.0,
        1.0,
        0.9999863505363464
      ],
      "min": [
        -1.0,
        -1.0,
        -1.0
      ],
      "type": "VEC3"
    },
    {
      "bufferView": 1,
      "byteOffset": 430192,
      "componentType": 5126,
      "count": 26838,
      "max": [
        0.9839360117912292,
        0.9946519732475281
      ],
      "min": [
        0.004999999888241291,
        0.004999999888241291
      ],
      "type": "VEC2"
    },
    {
      "bufferView": 0,
      "byteOffset": 1146816,
      "componentType": 5125,
      "count": 149232,
      "type": "SCALAR"
    },
    {
      "bufferView": 2,
      "byteOffset": 1934688,
      "componentType": 5126,
      "count": 3560,
      "max": [
        0.6246539950370789,
        0.6782150268554688,
        -0.04079600051045418
      ],
      "min": [
        -0.5476880073547363,
        0.48549801111221313,
        -0.17558600008487701
      ],
      "type": "VEC3"
    },
    {
      "bufferView": 2,
      "byteOffset": 1977408,
      "componentType": 5126,
      "count": 3560,
      "max": [
        0.9958069920539856,
        0.8935694098472595,
        0.9998289942741394
      ],
      "min": [
        -0.9695653319358826,
        -0.9299646019935608,
        -0.9998288750648499
      ],
      "type": "VEC3"
    },
    {
      "bufferView": 1,
      "byteOffset": 644896,
      "componentType": 5126,
      "count": 3560,
      "max": [
        0.995041012763977,
        0.14499999582767487
      ],
      "min": [
        0.9769589900970459,
        0.03500000014901161
      ],
      "type": "VEC2"
    },
    {
      "bufferView": 0,
      "byteOffset": 1743744,
      "componentType": 5125,
      "count": 21240,
      "type": "SCALAR"
    },
    {
      "bufferView": 2,
      "byteOffset": 2020128,
      "componentType": 5126,
      "count": 2696,
      "max": [
        1.4338300228118896,
        0.627062976360321,
        1.773300051689148
      ],
      "min": [
        -1.4338300228118896,
        -1.5478299856185913,
        0.5256100296974182
      ],
      "type": "VEC3"
    },
    {
      "bufferView": 2,
      "byteOffset": 2052480,
      "componentType": 5126,
      "count": 2696,
      "max": [
        1.0,
        1.0,
        0.9555331468582153
      ],
      "min": [
        -1.0,
        -0.9995782375335693,
        -0.8603808283805847
      ],
      "type": "VEC3"
    },
    {
      "bufferView": 1,
      "byteOffset": 673376,
      "componentType": 5126,
      "count": 2696,
      "max": [
        0.9205269813537598,
        0.8614559769630432
      ],
      "min": [
        0.08042269945144653,
        0.09478890150785446
      ],
      "type": "VEC2"
    },
    {
      "bufferView": 0,
      "byteOffset": 1828704,
      "componentType": 5125,
      "count": 14976,
      "type": "SCALAR"
    }
  ],
  "asset": {
    "extras": {
      "author": "Jiovanie Velazquez (https://sketchfab.com/Jiovanie)",
      "license": "CC-BY-NC-4.0 (http://creativecommons.org/licenses/by-nc/4.0/)",
      "source": "https://sketchfab.com/3d-models/dumptruck-qCWXrNLMlMOEtD5rcS0zOKbdkbB",
      "title": "DumpTruck"
    },
    "generator": "Sketchfab-12.66.0",
    "version": "2.0"
  },
  "bufferViews": [
    {
      "buffer": 0,
      "byteLength": 1888608,
      "name": "floatBufferViews",
      "target": 34963
    },
    {
      "buffer": 0,
      "byteLength": 694944,
      "byteOffset": 1888608,
      "byteStride": 8,
      "name": "floatBufferViews",
      "target": 34962
    },
    {
      "buffer": 0,
      "byteLength": 2084832,
      "byteOffset": 2583552,
      "byteStride": 12,
      "name": "floatBufferViews",
      "target": 34962
    }
  ],
  "buffers": [
    {
      "byteLength": 4668384,
      "uri": "scene.bin"
    }
  ],
  "images": [
    {
      "uri": "textures/Axle_baseColor.png"
    }
  ],
  "materials": [
    {
      "doubleSided": true,
      "name": "Axle",
      "pbrMetallicRoughness": {
        "baseColorTexture": {
          "index": 0
        },
        "metallicFactor": 0.0
      }
    },
    {
      "doubleSided": true,
      "name": "Default",
      "pbrMetallicRoughness": {
        "baseColorTexture": {
          "index": 0
        },
        "metallicFactor": 0.0
      }
    },
    {
      "doubleSided": true,
      "name": "Grille",
      "pbrMetallicRoughness": {
        "baseColorTexture": {
          "index": 0
        },
        "metallicFactor": 0.0
      }
    },
    {
      "doubleSided": true,
      "name": "Lug_032Nuts",
      "pbrMetallicRoughness": {
        "baseColorTexture": {
          "index": 0
        },
        "metallicFactor": 0.0
      }
    },
    {
      "doubleSided": true,
      "name": "Rim_032Holes",
      "pbrMetallicRoughness": {
        "baseColorTexture": {
          "index": 0
        },
        "metallicFactor": 0.0
      }
    },
    {
      "doubleSided": true,
      "name": "Rims",
      "pbrMetallicRoughness": {
        "baseColorTexture": {
          "index": 0
        },
        "metallicFactor": 0.0
      }
    },
    {
      "doubleSided": true,
      "name": "Tail_032Light",
      "pbrMetallicRoughness": {
        "baseColorTexture": {
          "index": 0
        },
        "metallicFactor": 0.0
      }
    },
    {
      "doubleSided": true,
      "name": "UnderBody",
      "pbrMetallicRoughness": {
        "baseColorTexture": {
          "index": 0
        },
        "metallicFactor": 0.0
      }
    },
    {
      "doubleSided": true,
      "name": "Windows",
      "pbrMetallicRoughness": {
        "baseColorTexture": {
          "index": 0
        },
        "metallicFactor": 0.0
      }
    }
  ],
  "meshes": [
    {
      "name": "Object_0",
      "primitives": [
        {
          "attributes": {
            "NORMAL": 1,
            "POSITION": 0,
            "TEXCOORD_0": 2
          },
          "indices": 3,
          "material": 0,
          "mode": 4
        }
      ]
    },
    {
      "name": "Object_1",
      "primitives": [
        {
          "attributes": {
            "NORMAL": 5,
            "POSITION": 4,
            "TEXCOORD_0": 6
          },
          "indices": 7,
          "material": 1,
          "mode": 4
        }
      ]
    },
    {
      "name": "Object_2",
      "primitives": [
        {
          "attributes": {
            "NORMAL": 9,
            "POSITION": 8,
            "TEXCOORD_0": 10
          },
          "indices": 11,
          "material": 1,
          "mode": 4
        }
      ]
    },
    {
      "name": "Object_3",
      "primitives": [
        {
          "attributes": {
            "NORMAL": 13,
            "POSITION": 12,
            "TEXCOORD_0": 14
          },
          "indices": 15,
          "material": 1,
          "mode": 4
        }
      ]
    },
    {
      "name": "Object_4",
      "primitives": [
        {
          "attributes": {
            "NORMAL": 17,
            "POSITION": 16,
            "TEXCOORD_0": 18
          },
          "indices": 19,
          "material": 2,
          "mode": 4
        }
      ]
    },
    {
      "name": "Object_5",
      "primitives": [
        {
          "attributes": {
            "NORMAL": 21,
            "POSITION": 20,
            "TEXCOORD_0": 22
          },
          "indices": 23,
          "material": 3,
          "mode": 4
        }
      ]
    },
    {
      "name": "Object_6",
      "primitives": [
        {
          "attributes": {
            "NORMAL": 25,
            "POSITION": 24,
            "TEXCOORD_0": 26
          },
          "indices": 27,
          "material": 4,
          "mode": 4
        }
      ]
    },
    {
      "name": "Object_7",
      "primitives": [
        {
          "attributes": {
            "NORMAL": 29,
            "POSITION": 28,
            "TEXCOORD_0": 30
          },
          "indices": 31,
          "material": 5,
          "mode": 4
        }
      ]
    },
    {
      "name": "Object_8",
      "primitives": [
        {
          "attributes": {
            "NORMAL": 33,
            "POSITION": 32,
            "TEXCOORD_0": 34
          },
          "indices": 35,
          "material": 6,
          "mode": 4
        }
      ]
    },
    {
      "name": "Object_9",
      "primitives": [
        {
          "attributes": {
            "NORMAL": 37,
            "POSITION": 36,
            "TEXCOORD_0": 38
          },
          "indices": 39,
          "material": 7,
          "mode": 4
        }
      ]
    },
    {
      "name": "Object_10",
      "primitives": [
        {
          "attributes": {
            "NORMAL": 41,
            "POSITION": 40,
            "TEXCOORD_0": 42
          },
          "indices": 43,
          "material": 7,
          "mode": 4
        }
      ]
    },
    {
      "name": "Object_11",
      "primitives": [
        {
          "attributes": {
            "NORMAL": 45,
            "POSITION": 44,
            "TEXCOORD_0": 46
          },
          "indices": 47,
          "material": 8,
          "mode": 4
        }
      ]
    }
  ],
  "nodes": [
    {
      "children": [
        1
      ],
      "matrix": [
        1.0,
        0.0,
        0.0,
        0.0,
        0.0,
        2.220446049250313e-16,
        -1.0,
        0.0,
        0.0,
        1.0,
        2.220446049250313e-16,
        0.0,
        0.0,
        0.0,
        0.0,
        1.0
      ],
      "name": "Sketchfab_model"
    },
    {
      "children": [
        2,
        3,
        4,
        5,
        6,
        7,
        8,
        9,
        10,
        11,
        12,
        13
      ],
      "name": "DumpTruck.obj.cleaner.materialmerger.gles"
    },
    {
      "mesh": 0,
      "name": "Object_2"
    },
    {
      "mesh": 1,
      "name": "Object_3"
    },
    {
      "mesh": 2,
      "name": "Object_4"
    },
    {
      "mesh": 3,
      "name": "Object_5"
    },
    {
      "mesh": 4,
      "name": "Object_6"
    },
    {
      "mesh": 5,
      "name": "Object_7"
    },
    {
      "mesh": 6,
      "name": "Object_8"
    },
    {
      "mesh": 7,
      "name": "Object_9"
    },
    {
      "mesh": 8,
      "name": "Object_10"
    },
    {
      "mesh": 9,
      "name": "Object_11"
    },
    {
      "mesh": 10,
      "name": "Object_12"
    },
    {
      "mesh": 11,
      "name": "Object_13"
    }
  ],
  "samplers": [
    {
      "magFilter": 9729,
      "minFilter": 9987,
      "wrapS": 10497,
      "wrapT": 10497
    }
  ],
  "scene": 0,
  "scenes": [
    {
      "name": "Sketchfab_Scene",
      "nodes": [
        0
      ]
    }
  ],
  "textures": [
    {
      "sampler": 0,
      "source": 0
    }
  ]
}
