{
  "accessors": [
    {
      "bufferView": 2,
      "componentType": 5126,
      "count": 2050,
      "max": [
        30.786279678344727,
        55.634071350097656,
        65.7105712890625
      ],
      "min": [
        -30.786279678344727,
        11.162120819091797,
        -45.71713638305664
      ],
      "type": "VEC3"
    },
    {
      "bufferView": 2,
      "byteOffset": 24600,
      "componentType": 5126,
      "count": 2050,
      "max": [
        1.0,
        1.0,
        0.9902352690696716
      ],
      "min": [
        -1.0,
        -1.0,
        -0.9997377395629883
      ],
      "type": "VEC3"
    },
    {
      "bufferView": 1,
      "componentType": 5126,
      "count": 2050,
      "max": [
        0.9803801774978638,
        0.9790328741073608
      ],
      "min": [
        0.007394611835479736,
        0.00802245456725359
      ],
      "type": "VEC2"
    },
    {
      "bufferView": 0,
      "componentType": 5125,
      "count": 3075,
      "type": "SCALAR"
    },
    {
      "bufferView": 2,
      "byteOffset": 49200,
      "componentType": 5126,
      "count": 198,
      "max": [
        -19.292518615722656,
        15.578189849853516,
        -23.62145233154297
      ],
      "min": [
        -28.707481384277344,
        0.07818794250488281,
        -39.277870178222656
      ],
      "type": "VEC3"
    },
    {
      "bufferView": 2,
      "byteOffset": 51576,
      "componentType": 5126,
      "count": 198,
      "max": [
        1.0,
        0.9994564652442932,
        0.9994474053382874
      ],
      "min": [
        -1.0,
        -0.9994565844535828,
        -0.9994475841522217
      ],
      "type": "VEC3"
    },
    {
      "bufferView": 1,
      "byteOffset": 16400,
      "componentType": 5126,
      "count": 198,
      "max": [
        0.9933993220329285,
        0.4623713791370392
      ],
      "min": [
        0.8433576226234436,
        0.13686633110046387
      ],
      "type": "VEC2"
    },
    {
      "bufferView": 0,
      "byteOffset": 12300,
      "componentType": 5125,
      "count": 720,
      "type": "SCALAR"
    },
    {
      "bufferView": 2,
      "byteOffset": 53952,
      "componentType": 5126,
      "count": 198,
      "max": [
        -19.292518615722656,
        15.578189849853516,
        49.45941162109375
      ],
      "min": [
        -28.707481384277344,
        0.07818794250488281,
        33.80299758911133
      ],
      "type": "VEC3"
    },
    {
      "bufferView": 2,
      "byteOffset": 56328,
      "componentType": 5126,
      "count": 198,
      "max": [
        1.0,
        0.999456524848938,
        0.9994475245475769
      ],
      "min": [
        -1.0,
        -0.9994565844535828,
        -0.9994475841522217
      ],
      "type": "VEC3"
    },
    {
      "bufferView": 1,
      "byteOffset": 17984,
      "componentType": 5126,
      "count": 198,
      "max": [
        0.9933993220329285,
        0.4623713791370392
      ],
      "min": [
        0.8433576226234436,
        0.13686633110046387
      ],
      "type": "VEC2"
    },
    {
      "bufferView": 0,
      "byteOffset": 15180,
      "componentType": 5125,
      "count": 720,
      "type": "SCALAR"
    },
    {
      "bufferView": 2,
      "byteOffset": 58704,
      "componentType": 5126,
      "count": 198,
      "max": [
        28.707481384277344,
        15.656383514404297,
        -23.62145233154297
      ],
      "min": [
        19.292518615722656,
        4.76837158203125e-07,
        -39.277870178222656
      ],
      "type": "VEC3"
    },
    {
      "bufferView": 2,
      "byteOffset": 61080,
      "componentType": 5126,
      "count": 198,
      "max": [
        1.0,
        0.9994468688964844,
        0.9994468092918396
      ],
      "min": [
        -1.0,
        -0.9994467496871948,
        -0.9994469285011292
      ],
      "type": "VEC3"
    },
    {
      "bufferView": 1,
      "byteOffset": 19568,
      "componentType": 5126,
      "count": 198,
      "max": [
        0.9933993220329285,
        0.4623713791370392
      ],
      "min": [
        0.8433576226234436,
        0.13686633110046387
      ],
      "type": "VEC2"
    },
    {
      "bufferView": 0,
      "byteOffset": 18060,
      "componentType": 5125,
      "count": 720,
      "type": "SCALAR"
    },
    {
      "bufferView": 2,
      "byteOffset": 63456,
      "componentType": 5126,
      "count": 198,
      "max": [
        28.707481384277344,
        15.656383514404297,
        49.45941162109375
      ],
      "min": [
        19.292518615722656,
        4.76837158203125e-07,
        33.80299758911133
      ],
      "type": "VEC3"
    },
    {
      "bufferView": 2,
      "byteOffset": 65832,
      "componentType": 5126,
      "count": 198,
      "max": [
        1.0,
        0.9994468092918396,
        0.9994468092918396
      ],
      "min": [
        -1.0,
        -0.9994468688964844,
        -0.9994469285011292
      ],
      "type": "VEC3"
    },
    {
      "bufferView": 1,
      "byteOffset": 21152,
      "componentType": 5126,
      "count": 198,
      "max": [
        0.99339759349823,
        0.46237125992774963
      ],
      "min": [
        0.8433575630187988,
        0.1368664801120758
      ],
      "type": "VEC2"
    },
    {
      "bufferView": 0,
      "byteOffset": 20940,
      "componentType": 5125,
      "count": 720,
      "type": "SCALAR"
    }
  ],
  "asset": {
    "extras": {
      "author": "lauramakesgames (https://sketchfab.com/lauramakesgames)",
      "license": "CC-BY-SA-4.0 (http://creativecommons.org/licenses/by-sa/4.0/)",
      "source": "https://sketchfab.com/3d-models/paper-box-car-c8144995945a43d88deab5b594d666e6",
      "title": "Paper Box Car"
    },
    "generator": "Sketchfab-13.31.0",
    "version": "2.0"
  },
  "bufferViews": [
    {
      "buffer": 0,
      "byteLength": 23820,
      "name": "floatBufferViews",
      "target": 34963
    },
    {
      "buffer": 0,
      "byteLength": 22736,
      "byteOffset": 23820,
      "byteStride": 8,
      "name": "floatBufferViews",
      "target": 34962
    },
    {
      "buffer": 0,
      "byteLength": 68208,
      "byteOffset": 46556,
      "byteStride": 12,
      "name": "floatBufferViews",
      "target": 34962
    }
  ],
  "buffers": [
    {
      "byteLength": 114764,
      "uri": "scene.bin"
    }
  ],
  "images": [
    {
      "uri": "textures/mat_env_prop_car_baseColor.png"
    }
  ],
  "materials": [
    {
      "doubleSided": true,
      "name": "mat_env_prop_car",
      "pbrMetallicRoughness": {
        "baseColorTexture": {
          "index": 0
        },
        "metallicFactor": 0.0,
        "roughnessFactor": 0.8152405797808145
      }
    }
  ],
  "meshes": [
    {
      "name": "env_prop_car_01_mat_env_prop_car_0",
      "primitives": [
        {
          "attributes": {
            "NORMAL": 1,
            "POSITION": 0,
            "TEXCOORD_0": 2
          },
          "indices": 3,
          "material": 0,
          "mode": 4
        }
      ]
    },
    {
      "name": "env_prop_tire_04_mat_env_prop_car_0",
      "primitives": [
        {
          "attributes": {
            "NORMAL": 5,
            "POSITION": 4,
            "TEXCOORD_0": 6
          },
          "indices": 7,
          "material": 0,
          "mode": 4
        }
      ]
    },
    {
      "name": "env_prop_tire_03_mat_env_prop_car_0",
      "primitives": [
        {
          "attributes": {
            "NORMAL": 9,
            "POSITION": 8,
            "TEXCOORD_0": 10
          },
          "indices": 11,
          "material": 0,
          "mode": 4
        }
      ]
    },
    {
      "name": "env_prop_tire_02_mat_env_prop_car_0",
      "primitives": [
        {
          "attributes": {
            "NORMAL": 13,
            "POSITION": 12,
            "TEXCOORD_0": 14
          },
          "indices": 15,
          "material": 0,
          "mode": 4
        }
      ]
    },
    {
      "name": "env_prop_tire_01_mat_env_prop_car_0",
      "primitives": [
        {
          "attributes": {
            "NORMAL": 17,
            "POSITION": 16,
            "TEXCOORD_0": 18
          },
          "indices": 19,
          "material": 0,
          "mode": 4
        }
      ]
    }
  ],
  "nodes": [
    {
      "children": [
        1
      ],
      "matrix": [
        1.0,
        0.0,
        0.0,
        0.0,
        0.0,
        2.220446049250313e-16,
        -1.0,
        0.0,
        0.0,
        1.0,
        2.220446049250313e-16,
        0.0,
        0.0,
        0.0,
        0.0,
        1.0
      ],
      "name": "Sketchfab_model"
    },
    {
      "children": [
        2
      ],
      "matrix": [
        1.0,
        0.0,
        0.0,
        0.0,
        0.0,
        0.0,
        1.0,
        0.0,
        0.0,
        -1.0,
        0.0,
        0.0,
        0.0,
        0.0,
        0.0,
        1.0
      ],
      "name": "3388a2970ee34f4fab15ccb8492267bd.fbx"
    },
    {
      "children": [
        3
      ],
      "name": "RootNode"
    },
    {
      "children": [
        4,
        5,
        7,
        9,
        11
      ],
      "matrix": [
        0.009999999776482582,
        0.0,
        0.0,
        0.0,
        0.0,
        0.009999999776482582,
        0.0,
        0.0,
        0.0,
        0.0,
        0.009999999776482582,
        0.0,
        0.0,
        0.0,
        0.0,
        1.0
      ],
      "name": "env_prop_car_01"
    },
    {
      "mesh": 0,
      "name": "env_prop_car_01_mat_env_prop_car_0"
    },
    {
      "children": [
        6
      ],
      "name": "env_prop_tire_04"
    },
    {
      "mesh": 1,
      "name": "env_prop_tire_04_mat_env_prop_car_0"
    },
    {
      "children": [
        8
      ],
      "name": "env_prop_tire_03"
    },
    {
      "mesh": 2,
      "name": "env_prop_tire_03_mat_env_prop_car_0"
    },
    {
      "children": [
        10
      ],
      "name": "env_prop_tire_02"
    },
    {
      "mesh": 3,
      "name": "env_prop_tire_02_mat_env_prop_car_0"
    },
    {
      "children": [
        12
      ],
      "name": "env_prop_tire_01"
    },
    {
      "mesh": 4,
      "name": "env_prop_tire_01_mat_env_prop_car_0"
    }
  ],
  "samplers": [
    {
      "magFilter": 9729,
      "minFilter": 9987,
      "wrapS": 10497,
      "wrapT": 10497
    }
  ],
  "scene": 0,
  "scenes": [
    {
      "name": "Sketchfab_Scene",
      "nodes": [
        0
      ]
    }
  ],
  "textures": [
    {
      "sampler": 0,
      "source": 0
    }
  ]
}
